<?xml version="1.0" standalone="no"?>
<!DOCTYPE svg PUBLIC "-//W3C//DTD SVG 20010904//EN"
 "http://www.w3.org/TR/2001/REC-SVG-20010904/DTD/svg10.dtd">
<svg version="1.0" xmlns="http://www.w3.org/2000/svg"
 width="260.000000pt" height="260.000000pt" viewBox="0 0 260.000000 260.000000"
 preserveAspectRatio="xMidYMid meet">
<metadata>
Created by potrace 1.14, written by Peter Selinger 2001-2017
</metadata>
<g transform="translate(0.000000,260.000000) scale(0.100000,-0.100000)"
fill="#000000" stroke="none">
<path d="M1264 1958 c-23 -5 -52 -20 -65 -34 l-24 -26 0 -394 c0 -448 -4 -426
87 -439 42 -6 50 -4 72 18 l26 26 0 391 c0 320 -3 396 -14 419 -22 42 -36 49
-82 39z"/>
<path d="M1840 1743 c-8 -3 -24 -14 -35 -23 -11 -10 -47 -26 -80 -35 -33 -9
-79 -30 -102 -46 -23 -16 -56 -32 -73 -35 -49 -10 -73 -49 -66 -109 7 -60 37
-92 97 -101 23 -4 53 -17 67 -29 39 -32 64 -44 124 -56 29 -6 63 -20 75 -31
25 -23 48 -15 82 28 42 53 17 122 -51 138 -17 4 -34 21 -51 50 -26 47 -25 56
4 56 36 0 96 31 108 56 6 14 11 42 11 64 0 58 -53 94 -110 73z"/>
<path d="M610 1453 c-78 -8 -105 -44 -91 -119 5 -26 20 -57 34 -72 14 -15 28
-45 32 -68 7 -45 39 -104 55 -104 6 0 19 -20 30 -45 12 -28 29 -50 45 -57 15
-6 33 -27 40 -45 10 -24 22 -35 45 -39 16 -4 30 -13 30 -20 0 -23 36 -52 79
-64 23 -6 41 -15 41 -20 0 -21 77 -59 133 -66 33 -3 61 -12 64 -19 9 -25 73
-46 157 -52 100 -7 123 -2 163 34 23 21 33 40 37 74 7 44 5 47 -30 74 -33 25
-48 29 -140 35 -95 6 -106 9 -132 33 -20 19 -49 32 -91 40 -49 10 -66 19 -76
38 -7 13 -25 28 -38 34 -34 14 -113 89 -132 125 -8 16 -24 31 -35 35 -14 4
-22 19 -27 47 -4 26 -18 55 -40 78 -18 21 -33 44 -33 52 0 39 -23 77 -52 87
-17 6 -31 10 -32 9 -1 0 -17 -3 -36 -5z"/>
</g>
</svg>
